<svg width="25" height="24" viewBox="0 0 25 24" fill="none" xmlns="http://www.w3.org/2000/svg">
<ellipse cx="12.5" cy="12" rx="4" ry="10" stroke="white" stroke-width="1.5"/>
<path d="M22.4962 11.7205C20.6938 13.2016 16.8949 14.2222 12.5 14.2222C8.10511 14.2222 4.30619 13.2016 2.50383 11.7205M22.4962 11.7205C22.3482 6.32691 17.9294 2 12.5 2C7.07061 2 2.65183 6.32691 2.50383 11.7205M22.4962 11.7205C22.4987 11.8134 22.5 11.9065 22.5 12C22.5 17.5228 18.0228 22 12.5 22C6.97715 22 2.5 17.5228 2.5 12C2.5 11.9065 2.50128 11.8134 2.50383 11.7205" stroke="white" stroke-width="1.5"/>
</svg>
