<svg width="25" height="24" viewBox="0 0 25 24" fill="none" xmlns="http://www.w3.org/2000/svg">
<path d="M18.0355 17.0806L17.5052 17.6109C17.6459 17.7516 17.8366 17.8306 18.0355 17.8306C18.2344 17.8306 18.4252 17.7516 18.5659 17.6109L18.0355 17.0806ZM18.2565 16.8596L17.7262 16.3293L17.7262 16.3293L18.2565 16.8596ZM17.8146 16.8596L17.2842 17.39H17.2842L17.8146 16.8596ZM15.6049 19.0693L15.0745 19.5997L15.6049 19.0693ZM17.1517 20.6161L17.682 20.0858L17.1517 20.6161ZM5.61478 7.51347C5.20545 7.45008 4.82223 7.73052 4.75884 8.13986C4.69544 8.54919 4.97588 8.93241 5.38522 8.9958L5.61478 7.51347ZM9.22949 9.98739C9.61583 10.1368 10.0501 9.94471 10.1995 9.55838C10.3489 9.17205 10.1568 8.73775 9.77051 8.58836L9.22949 9.98739ZM13.25 6.05337C13.25 5.63915 12.9142 5.30337 12.5 5.30337C12.0858 5.30337 11.75 5.63915 11.75 6.05337H13.25ZM12.5 21V21.75C12.9142 21.75 13.25 21.4142 13.25 21H12.5ZM4.49433 3.01127L4.57854 2.26601L4.49433 3.01127ZM11.8168 5.42445L12.2472 4.81023V4.81023L11.8168 5.42445ZM4.49433 18.3723L4.57854 17.6271L4.49433 18.3723ZM11.8168 20.7855L12.2472 20.1713H12.2472L11.8168 20.7855ZM20.5057 3.01127L20.4215 2.26601L20.5057 3.01127ZM13.1832 5.42445L12.7528 4.81023V4.81023L13.1832 5.42445ZM21.75 14C21.75 14.4142 22.0858 14.75 22.5 14.75C22.9142 14.75 23.25 14.4142 23.25 14H21.75ZM5.61478 11.5135C5.20545 11.4501 4.82223 11.7305 4.75884 12.1399C4.69544 12.5492 4.97588 12.9324 5.38522 12.9958L5.61478 11.5135ZM7.31653 13.3856C7.71815 13.4869 8.12588 13.2435 8.22721 12.8418C8.32854 12.4402 8.0851 12.0325 7.68347 11.9311L7.31653 13.3856ZM18.5659 17.6109L18.7868 17.39L17.7262 16.3293L17.5052 16.5503L18.5659 17.6109ZM17.2842 17.39L17.5052 17.6109L18.5659 16.5503L18.3449 16.3293L17.2842 17.39ZM15.0745 19.5997L16.6213 21.1465L17.682 20.0858L16.1352 18.539L15.0745 19.5997ZM19.4497 21.1465L20.9965 19.5997L19.9359 18.539L18.3891 20.0858L19.4497 21.1465ZM19.9359 17.39C20.2532 17.7073 20.2532 18.2217 19.9359 18.539L20.9965 19.5997C21.8996 18.6966 21.8996 17.2324 20.9965 16.3293L19.9359 17.39ZM20.9965 16.3293C20.0935 15.4262 18.6293 15.4262 17.7262 16.3293L18.7868 17.39C19.1041 17.0727 19.6186 17.0727 19.9359 17.39L20.9965 16.3293ZM16.1352 17.39C16.4525 17.0727 16.9669 17.0727 17.2842 17.39L18.3449 16.3293C17.4418 15.4262 15.9776 15.4262 15.0745 16.3293L16.1352 17.39ZM16.6213 21.1465C17.4024 21.9275 18.6687 21.9275 19.4497 21.1465L18.3891 20.0858C18.1938 20.2811 17.8772 20.2811 17.682 20.0858L16.6213 21.1465ZM15.0745 16.3293C14.1714 17.2324 14.1714 18.6966 15.0745 19.5997L16.1352 18.539C15.8179 18.2217 15.8179 17.7073 16.1352 17.39L15.0745 16.3293ZM5.38522 8.9958C6.61399 9.1861 7.97085 9.50067 9.22949 9.98739L9.77051 8.58836C8.38471 8.05247 6.91756 7.71523 5.61478 7.51347L5.38522 8.9958ZM11.75 6.05337V21H13.25V6.05337H11.75ZM4.41012 3.75653C6.58646 4.00245 9.41678 4.65848 11.3864 6.03866L12.2472 4.81023C9.96948 3.21416 6.83895 2.52144 4.57854 2.26601L4.41012 3.75653ZM4.41012 19.1176C6.58646 19.3635 9.41678 20.0195 11.3864 21.3997L12.2472 20.1713C9.96948 18.5752 6.83895 17.8825 4.57854 17.6271L4.41012 19.1176ZM1.75 4.93518V16.2H3.25V4.93518H1.75ZM4.57854 17.6271C3.82877 17.5423 3.25 16.919 3.25 16.2H1.75C1.75 17.7432 2.96408 18.9542 4.41012 19.1176L4.57854 17.6271ZM4.57854 2.26601C2.96654 2.08386 1.75 3.42929 1.75 4.93518H3.25C3.25 4.17876 3.82631 3.69056 4.41012 3.75653L4.57854 2.26601ZM20.4215 2.26601C18.1611 2.52144 15.0305 3.21416 12.7528 4.81023L13.6136 6.03866C15.5832 4.65848 18.4135 4.00245 20.5899 3.75653L20.4215 2.26601ZM21.75 4.93518V14H23.25V4.93518H21.75ZM20.5899 3.75653C21.1737 3.69056 21.75 4.17876 21.75 4.93518H23.25C23.25 3.42929 22.0335 2.08386 20.4215 2.26601L20.5899 3.75653ZM11.3864 6.03866C12.053 6.50571 12.947 6.50571 13.6136 6.03866L12.7528 4.81023C12.603 4.91519 12.397 4.91519 12.2472 4.81023L11.3864 6.03866ZM11.3864 21.3997C11.7209 21.6341 12.1118 21.75 12.5 21.75V20.25C12.4091 20.25 12.3209 20.2229 12.2472 20.1713L11.3864 21.3997ZM5.38522 12.9958C6.00446 13.0917 6.65813 13.2195 7.31653 13.3856L7.68347 11.9311C6.97447 11.7523 6.27452 11.6156 5.61478 11.5135L5.38522 12.9958Z" fill="#FCFCFC"/>
</svg>
